KA Almouzios Chronos-Regular.ufo
<glyph name="comma" format="2">
	<advance width="0"/>
	<unicode hex="002C"/>
	<note>
		comma
  </note>
	<outline>
		<contour>
			<point x="-560" y="208" type="curve"/>
			<point x="-560" y="208" type="line"/>
			<point x="-538" y="208"/>
			<point x="-509" y="227"/>
			<point x="-474" y="264" type="curve"/>
			<point x="-438" y="306" type="line"/>
			<point x="-428" y="319"/>
			<point x="-423" y="326"/>
			<point x="-423" y="329" type="curve"/>
			<point x="-423" y="336"/>
			<point x="-482" y="340"/>
			<point x="-599" y="340" type="curve"/>
			<point x="-660" y="340"/>
			<point x="-700" y="339"/>
			<point x="-720" y="338" type="curve"/>
			<point x="-741" y="336"/>
			<point x="-751" y="333"/>
			<point x="-751" y="329" type="curve"/>
			<point x="-751" y="324"/>
			<point x="-745" y="320"/>
			<point x="-732" y="317" type="curve"/>
			<point x="-719" y="314"/>
			<point x="-695" y="311"/>
			<point x="-658" y="310" type="curve"/>
			<point x="-550" y="305" type="line"/>
			<point x="-578" y="272" type="line" smooth="yes"/>
			<point x="-591" y="256"/>
			<point x="-598" y="245"/>
			<point x="-598" y="238" type="curve"/>
			<point x="-598" y="233"/>
			<point x="-596" y="228"/>
			<point x="-593" y="225" type="curve"/>
			<point x="-584" y="214"/>
			<point x="-573" y="208"/>
		</contour>
	</outline>
</glyph>
<glyph name="period" format="2">
	<advance width="0"/>
	<unicode hex="002E"/>
	<note>
		period
  </note>
	<outline>
		<contour>
			<point x="-580" y="208" type="curve"/>
			<point x="-580" y="208" type="line"/>
			<point x="-558" y="208"/>
			<point x="-529" y="227"/>
			<point x="-494" y="264" type="curve"/>
			<point x="-481" y="279"/>
			<point x="-469" y="293"/>
			<point x="-458" y="306" type="curve"/>
			<point x="-448" y="319"/>
			<point x="-443" y="326"/>
			<point x="-443" y="329" type="curve"/>
			<point x="-443" y="336"/>
			<point x="-495" y="340"/>
			<point x="-599" y="340" type="curve"/>
			<point x="-640" y="340"/>
			<point x="-669" y="340"/>
			<point x="-684" y="339" type="curve"/>
			<point x="-653" y="360"/>
			<point x="-619" y="400"/>
			<point x="-598" y="426" type="curve"/>
			<point x="-588" y="439"/>
			<point x="-583" y="446"/>
			<point x="-583" y="449" type="curve"/>
			<point x="-583" y="456"/>
			<point x="-634" y="460"/>
			<point x="-661" y="460" type="curve"/>
			<point x="-681" y="460"/>
			<point x="-685" y="456"/>
			<point x="-692" y="444" type="curve"/>
			<point x="-697" y="435"/>
			<point x="-702" y="429"/>
			<point x="-706" y="425" type="curve"/>
			<point x="-738" y="392" type="line" smooth="yes"/>
			<point x="-761" y="369"/>
			<point x="-773" y="350"/>
			<point x="-773" y="336" type="curve"/>
			<point x="-773" y="333"/>
			<point x="-772" y="330"/>
			<point x="-771" y="327" type="curve"/>
			<point x="-768" y="322"/>
			<point x="-760" y="318"/>
			<point x="-746" y="317" type="curve"/>
			<point x="-732" y="315"/>
			<point x="-703" y="313"/>
			<point x="-658" y="310" type="curve"/>
			<point x="-570" y="305" type="line"/>
			<point x="-598" y="272" type="line" smooth="yes"/>
			<point x="-611" y="256"/>
			<point x="-618" y="245"/>
			<point x="-618" y="238" type="curve"/>
			<point x="-618" y="233"/>
			<point x="-616" y="228"/>
			<point x="-613" y="225" type="curve"/>
			<point x="-604" y="214"/>
			<point x="-593" y="208"/>
		</contour>
	</outline>
</glyph>
<glyph name="slash" format="2">
	<advance width="0"/>
	<unicode hex="002F"/>
	<note>
		slash
  </note>
	<outline>
		<contour>
			<point x="-580" y="208" type="curve"/>
			<point x="-580" y="208" type="line"/>
			<point x="-558" y="208"/>
			<point x="-529" y="227"/>
			<point x="-494" y="264" type="curve"/>
			<point x="-458" y="306" type="line"/>
			<point x="-448" y="319"/>
			<point x="-443" y="326"/>
			<point x="-443" y="329" type="curve"/>
			<point x="-443" y="336"/>
			<point x="-495" y="340"/>
			<point x="-599" y="340" type="curve"/>
			<point x="-640" y="340"/>
			<point x="-669" y="340"/>
			<point x="-684" y="339" type="curve"/>
			<point x="-653" y="360"/>
			<point x="-619" y="400"/>
			<point x="-598" y="426" type="curve"/>
			<point x="-588" y="439"/>
			<point x="-583" y="446"/>
			<point x="-583" y="449" type="curve"/>
			<point x="-583" y="452"/>
			<point x="-594" y="455"/>
			<point x="-617" y="457" type="curve"/>
			<point x="-640" y="459"/>
			<point x="-666" y="460"/>
			<point x="-694" y="460" type="curve"/>
			<point x="-769" y="460"/>
			<point x="-819" y="459"/>
			<point x="-844" y="458" type="curve"/>
			<point x="-870" y="456"/>
			<point x="-882" y="452"/>
			<point x="-881" y="447" type="curve"/>
			<point x="-878" y="438"/>
			<point x="-835" y="431"/>
			<point x="-753" y="427" type="curve"/>
			<point x="-710" y="425" type="line"/>
			<point x="-725" y="407"/>
			<point x="-734" y="396"/>
			<point x="-738" y="392" type="curve"/>
			<point x="-761" y="369"/>
			<point x="-773" y="350"/>
			<point x="-773" y="336" type="curve"/>
			<point x="-773" y="333"/>
			<point x="-772" y="330"/>
			<point x="-771" y="327" type="curve"/>
			<point x="-768" y="322"/>
			<point x="-760" y="318"/>
			<point x="-746" y="317" type="curve"/>
			<point x="-732" y="315"/>
			<point x="-703" y="313"/>
			<point x="-658" y="310" type="curve"/>
			<point x="-570" y="305" type="line"/>
			<point x="-598" y="272" type="line" smooth="yes"/>
			<point x="-611" y="256"/>
			<point x="-618" y="245"/>
			<point x="-618" y="238" type="curve"/>
			<point x="-618" y="233"/>
			<point x="-616" y="228"/>
			<point x="-613" y="225" type="curve"/>
			<point x="-604" y="214"/>
			<point x="-593" y="208"/>
		</contour>
	</outline>
</glyph>
<glyph name="A" format="2">
	<advance width="0"/>
	<unicode hex="0041"/>
	<note>
		A
  </note>
	<outline>
		<contour>
			<point x="-591" y="225" type="curve"/>
			<point x="-591" y="225" type="line"/>
			<point x="-588" y="228"/>
			<point x="-586" y="233"/>
			<point x="-586" y="238" type="curve"/>
			<point x="-586" y="245"/>
			<point x="-593" y="256"/>
			<point x="-606" y="272" type="curve"/>
			<point x="-634" y="305" type="line"/>
			<point x="-546" y="310" type="line" smooth="yes"/>
			<point x="-501" y="313"/>
			<point x="-472" y="315"/>
			<point x="-458" y="317" type="curve"/>
			<point x="-444" y="318"/>
			<point x="-436" y="322"/>
			<point x="-433" y="327" type="curve"/>
			<point x="-432" y="330"/>
			<point x="-431" y="333"/>
			<point x="-431" y="336" type="curve"/>
			<point x="-431" y="350"/>
			<point x="-443" y="369"/>
			<point x="-466" y="392" type="curve"/>
			<point x="-470" y="396"/>
			<point x="-479" y="407"/>
			<point x="-494" y="425" type="curve"/>
			<point x="-451" y="427" type="line" smooth="yes"/>
			<point x="-369" y="431"/>
			<point x="-326" y="438"/>
			<point x="-323" y="447" type="curve"/>
			<point x="-322" y="452"/>
			<point x="-334" y="456"/>
			<point x="-359" y="458" type="curve"/>
			<point x="-385" y="459"/>
			<point x="-435" y="460"/>
			<point x="-510" y="460" type="curve"/>
			<point x="-538" y="460"/>
			<point x="-563" y="459"/>
			<point x="-586" y="457" type="curve"/>
			<point x="-609" y="455"/>
			<point x="-621" y="452"/>
			<point x="-621" y="449" type="curve"/>
			<point x="-621" y="446"/>
			<point x="-616" y="439"/>
			<point x="-605" y="426" type="curve"/>
			<point x="-585" y="400"/>
			<point x="-551" y="360"/>
			<point x="-520" y="339" type="curve"/>
			<point x="-535" y="340"/>
			<point x="-564" y="340"/>
			<point x="-605" y="340" type="curve"/>
			<point x="-709" y="340"/>
			<point x="-761" y="336"/>
			<point x="-761" y="329" type="curve"/>
			<point x="-761" y="326"/>
			<point x="-756" y="319"/>
			<point x="-745" y="306" type="curve"/>
			<point x="-735" y="293"/>
			<point x="-723" y="279"/>
			<point x="-710" y="264" type="curve"/>
			<point x="-675" y="227"/>
			<point x="-646" y="208"/>
			<point x="-624" y="208" type="curve"/>
			<point x="-611" y="208"/>
			<point x="-600" y="214"/>
		</contour>
		<contour>
			<point x="-850" y="263" type="curve"/>
			<point x="-850" y="263" type="line"/>
			<point x="-837" y="263"/>
			<point x="-827" y="264"/>
			<point x="-822" y="265" type="curve"/>
			<point x="-817" y="266"/>
			<point x="-813" y="270"/>
			<point x="-812" y="275" type="curve"/>
			<point x="-811" y="280"/>
			<point x="-809" y="283"/>
			<point x="-808" y="286" type="curve"/>
			<point x="-804" y="301"/>
			<point x="-800" y="312"/>
			<point x="-796" y="318" type="curve"/>
			<point x="-794" y="321"/>
			<point x="-795" y="323"/>
			<point x="-798" y="324" type="curve"/>
			<point x="-802" y="325"/>
			<point x="-813" y="325"/>
			<point x="-831" y="325" type="curve"/>
			<point x="-847" y="325"/>
			<point x="-857" y="325"/>
			<point x="-861" y="324" type="curve"/>
			<point x="-865" y="323"/>
			<point x="-867" y="321"/>
			<point x="-868" y="317" type="curve"/>
			<point x="-869" y="312"/>
			<point x="-870" y="308"/>
			<point x="-871" y="304" type="curve"/>
			<point x="-876" y="291"/>
			<point x="-879" y="283"/>
			<point x="-882" y="279" type="curve"/>
			<point x="-884" y="276"/>
			<point x="-885" y="274"/>
			<point x="-885" y="272" type="curve"/>
			<point x="-885" y="266"/>
			<point x="-873" y="263"/>
		</contour>
	</outline>
</glyph>
<glyph name="Q" format="2">
	<advance width="0"/>
	<unicode hex="0051"/>
	<note>
		Q
  </note>
	<outline>
		<contour>
			<point x="-591" y="225" type="curve"/>
			<point x="-591" y="225" type="line"/>
			<point x="-588" y="228"/>
			<point x="-586" y="233"/>
			<point x="-586" y="238" type="curve"/>
			<point x="-586" y="245"/>
			<point x="-593" y="256"/>
			<point x="-606" y="272" type="curve"/>
			<point x="-634" y="305" type="line"/>
			<point x="-566" y="310" type="line"/>
			<point x="-535" y="312" type="line" smooth="yes"/>
			<point x="-506" y="314"/>
			<point x="-485" y="316"/>
			<point x="-473" y="318" type="curve"/>
			<point x="-450" y="321"/>
			<point x="-447" y="333"/>
			<point x="-455" y="347" type="curve"/>
			<point x="-459" y="354"/>
			<point x="-469" y="365"/>
			<point x="-486" y="382" type="curve"/>
			<point x="-490" y="386"/>
			<point x="-499" y="397"/>
			<point x="-514" y="415" type="curve"/>
			<point x="-471" y="417" type="line"/>
			<point x="-415" y="419" type="line"/>
			<point x="-392" y="419"/>
			<point x="-375" y="420"/>
			<point x="-365" y="422" type="curve"/>
			<point x="-356" y="423"/>
			<point x="-348" y="427"/>
			<point x="-342" y="434" type="curve"/>
			<point x="-338" y="438"/>
			<point x="-336" y="442"/>
			<point x="-336" y="446" type="curve"/>
			<point x="-336" y="455"/>
			<point x="-343" y="467"/>
			<point x="-356" y="482" type="curve"/>
			<point x="-384" y="515" type="line"/>
			<point x="-316" y="520" type="line" smooth="yes"/>
			<point x="-277" y="523"/>
			<point x="-248" y="525"/>
			<point x="-231" y="528" type="curve"/>
			<point x="-196" y="532"/>
			<point x="-189" y="544"/>
			<point x="-237" y="548" type="curve"/>
			<point x="-261" y="549"/>
			<point x="-307" y="550"/>
			<point x="-375" y="550" type="curve"/>
			<point x="-430" y="550"/>
			<point x="-466" y="549"/>
			<point x="-484" y="548" type="curve"/>
			<point x="-502" y="546"/>
			<point x="-511" y="543"/>
			<point x="-511" y="539" type="curve"/>
			<point x="-511" y="532"/>
			<point x="-441" y="464"/>
			<point x="-422" y="449" type="curve"/>
			<point x="-440" y="450"/>
			<point x="-476" y="450"/>
			<point x="-530" y="450" type="curve"/>
			<point x="-558" y="450"/>
			<point x="-583" y="449"/>
			<point x="-606" y="447" type="curve"/>
			<point x="-629" y="445"/>
			<point x="-641" y="442"/>
			<point x="-641" y="439" type="curve"/>
			<point x="-641" y="426"/>
			<point x="-572" y="362"/>
			<point x="-540" y="339" type="curve"/>
			<point x="-555" y="340"/>
			<point x="-577" y="340"/>
			<point x="-605" y="340" type="curve"/>
			<point x="-709" y="340"/>
			<point x="-761" y="336"/>
			<point x="-761" y="329" type="curve"/>
			<point x="-761" y="326"/>
			<point x="-756" y="319"/>
			<point x="-745" y="306" type="curve"/>
			<point x="-735" y="293"/>
			<point x="-723" y="279"/>
			<point x="-710" y="264" type="curve"/>
			<point x="-675" y="227"/>
			<point x="-646" y="208"/>
			<point x="-624" y="208" type="curve"/>
			<point x="-611" y="208"/>
			<point x="-600" y="214"/>
		</contour>
		<contour>
			<point x="-860" y="269" type="curve"/>
			<point x="-860" y="269" type="line"/>
			<point x="-847" y="269"/>
			<point x="-837" y="270"/>
			<point x="-832" y="271" type="curve"/>
			<point x="-827" y="272"/>
			<point x="-823" y="276"/>
			<point x="-822" y="281" type="curve"/>
			<point x="-821" y="286"/>
			<point x="-819" y="289"/>
			<point x="-818" y="292" type="curve"/>
			<point x="-814" y="307"/>
			<point x="-810" y="318"/>
			<point x="-806" y="324" type="curve"/>
			<point x="-804" y="327"/>
			<point x="-805" y="329"/>
			<point x="-808" y="330" type="curve"/>
			<point x="-812" y="331"/>
			<point x="-823" y="331"/>
			<point x="-841" y="331" type="curve"/>
			<point x="-857" y="331"/>
			<point x="-867" y="331"/>
			<point x="-871" y="330" type="curve"/>
			<point x="-875" y="329"/>
			<point x="-877" y="327"/>
			<point x="-878" y="323" type="curve"/>
			<point x="-879" y="318"/>
			<point x="-880" y="314"/>
			<point x="-881" y="310" type="curve"/>
			<point x="-886" y="297"/>
			<point x="-889" y="289"/>
			<point x="-892" y="285" type="curve"/>
			<point x="-894" y="282"/>
			<point x="-895" y="280"/>
			<point x="-895" y="278" type="curve"/>
			<point x="-895" y="272"/>
			<point x="-883" y="269"/>
		</contour>
	</outline>
</glyph>
<glyph name="backslash" format="2">
	<advance width="0"/>
	<unicode hex="005C"/>
	<note>
		backslash
  </note>
	<outline>
		<contour>
			<point x="-1029" y="448" type="curve"/>
			<point x="-1029" y="448" type="line"/>
			<point x="-1030" y="457"/>
			<point x="-1031" y="469"/>
			<point x="-1031" y="486" type="curve"/>
			<point x="-1031" y="544"/>
			<point x="-1016" y="599"/>
			<point x="-986" y="650" type="curve"/>
			<point x="-927" y="753"/>
			<point x="-819" y="820"/>
			<point x="-698" y="820" type="curve"/>
			<point x="-639" y="820"/>
			<point x="-583" y="805"/>
			<point x="-532" y="774" type="curve"/>
			<point x="-430" y="712"/>
			<point x="-365" y="601"/>
			<point x="-365" y="485" type="curve"/>
			<point x="-365" y="476"/>
			<point x="-366" y="464"/>
			<point x="-367" y="448" type="curve"/>
			<point x="-374" y="504"/>
			<point x="-393" y="554"/>
			<point x="-424" y="598" type="curve"/>
			<point x="-486" y="686"/>
			<point x="-586" y="738"/>
			<point x="-698" y="738" type="curve"/>
			<point x="-754" y="738"/>
			<point x="-806" y="726"/>
			<point x="-853" y="701" type="curve"/>
			<point x="-949" y="652"/>
			<point x="-1014" y="560"/>
		</contour>
		<contour>
			<point x="-660" y="489" type="curve"/>
			<point x="-660" y="489" type="line"/>
			<point x="-660" y="468"/>
			<point x="-675" y="448"/>
			<point x="-698" y="448" type="curve"/>
			<point x="-719" y="448"/>
			<point x="-739" y="466"/>
			<point x="-739" y="489" type="curve"/>
			<point x="-739" y="512"/>
			<point x="-721" y="528"/>
			<point x="-698" y="528" type="curve"/>
			<point x="-677" y="528"/>
			<point x="-660" y="512"/>
		</contour>
	</outline>
</glyph>
<glyph name="a" format="2">
	<advance width="0"/>
	<unicode hex="0061"/>
	<note>
		a
  </note>
	<outline>
		<contour>
			<point x="-591" y="225" type="curve"/>
			<point x="-591" y="225" type="line"/>
			<point x="-588" y="228"/>
			<point x="-586" y="233"/>
			<point x="-586" y="238" type="curve"/>
			<point x="-586" y="245"/>
			<point x="-593" y="256"/>
			<point x="-606" y="272" type="curve"/>
			<point x="-634" y="305" type="line"/>
			<point x="-546" y="310" type="line" smooth="yes"/>
			<point x="-501" y="313"/>
			<point x="-472" y="315"/>
			<point x="-458" y="317" type="curve"/>
			<point x="-444" y="318"/>
			<point x="-436" y="322"/>
			<point x="-433" y="327" type="curve"/>
			<point x="-432" y="330"/>
			<point x="-431" y="333"/>
			<point x="-431" y="336" type="curve"/>
			<point x="-431" y="350"/>
			<point x="-443" y="369"/>
			<point x="-466" y="392" type="curve"/>
			<point x="-470" y="396"/>
			<point x="-479" y="407"/>
			<point x="-494" y="425" type="curve"/>
			<point x="-451" y="427" type="line" smooth="yes"/>
			<point x="-369" y="431"/>
			<point x="-326" y="438"/>
			<point x="-323" y="447" type="curve"/>
			<point x="-322" y="452"/>
			<point x="-334" y="456"/>
			<point x="-359" y="458" type="curve"/>
			<point x="-385" y="459"/>
			<point x="-435" y="460"/>
			<point x="-510" y="460" type="curve"/>
			<point x="-538" y="460"/>
			<point x="-563" y="459"/>
			<point x="-586" y="457" type="curve"/>
			<point x="-609" y="455"/>
			<point x="-621" y="452"/>
			<point x="-621" y="449" type="curve"/>
			<point x="-621" y="446"/>
			<point x="-616" y="439"/>
			<point x="-605" y="426" type="curve"/>
			<point x="-585" y="400"/>
			<point x="-551" y="360"/>
			<point x="-520" y="339" type="curve"/>
			<point x="-535" y="340"/>
			<point x="-564" y="340"/>
			<point x="-605" y="340" type="curve"/>
			<point x="-709" y="340"/>
			<point x="-761" y="336"/>
			<point x="-761" y="329" type="curve"/>
			<point x="-761" y="326"/>
			<point x="-756" y="319"/>
			<point x="-745" y="306" type="curve"/>
			<point x="-735" y="293"/>
			<point x="-723" y="279"/>
			<point x="-710" y="264" type="curve"/>
			<point x="-675" y="227"/>
			<point x="-646" y="208"/>
			<point x="-624" y="208" type="curve"/>
			<point x="-611" y="208"/>
			<point x="-600" y="214"/>
		</contour>
	</outline>
</glyph>
<glyph name="bar" format="2">
	<advance width="0"/>
	<unicode hex="007C"/>
	<note>
		bar
  </note>
	<outline>
		<contour>
			<point x="-434" y="448" type="curve"/>
			<point x="-434" y="448" type="line"/>
			<point x="-437" y="459"/>
			<point x="-438" y="472"/>
			<point x="-438" y="486" type="curve"/>
			<point x="-438" y="542"/>
			<point x="-415" y="595"/>
			<point x="-368" y="646" type="curve"/>
			<point x="-276" y="746"/>
			<point x="-101" y="820"/>
			<point x="110" y="820" type="curve"/>
			<point x="207" y="820"/>
			<point x="297" y="805"/>
			<point x="381" y="774" type="curve"/>
			<point x="549" y="712"/>
			<point x="657" y="602"/>
			<point x="657" y="485" type="curve"/>
			<point x="657" y="476"/>
			<point x="656" y="464"/>
			<point x="653" y="448" type="curve"/>
			<point x="641" y="503"/>
			<point x="610" y="553"/>
			<point x="559" y="598" type="curve"/>
			<point x="458" y="686"/>
			<point x="294" y="738"/>
			<point x="110" y="738" type="curve"/>
			<point x="17" y="738"/>
			<point x="-68" y="726"/>
			<point x="-146" y="701" type="curve"/>
			<point x="-303" y="652"/>
			<point x="-409" y="560"/>
		</contour>
	</outline>
</glyph>
<glyph name="oe" format="2">
	<advance width="0"/>
	<unicode hex="0153"/>
	<note>
		oe
  </note>
	<outline>
		<contour>
			<point x="-591" y="225" type="curve"/>
			<point x="-591" y="225" type="line"/>
			<point x="-588" y="228"/>
			<point x="-586" y="233"/>
			<point x="-586" y="238" type="curve"/>
			<point x="-586" y="245"/>
			<point x="-593" y="256"/>
			<point x="-606" y="272" type="curve"/>
			<point x="-634" y="305" type="line"/>
			<point x="-566" y="310" type="line"/>
			<point x="-535" y="312" type="line" smooth="yes"/>
			<point x="-506" y="314"/>
			<point x="-485" y="316"/>
			<point x="-473" y="318" type="curve"/>
			<point x="-450" y="321"/>
			<point x="-447" y="333"/>
			<point x="-455" y="347" type="curve"/>
			<point x="-459" y="354"/>
			<point x="-469" y="365"/>
			<point x="-486" y="382" type="curve"/>
			<point x="-490" y="386"/>
			<point x="-499" y="397"/>
			<point x="-514" y="415" type="curve"/>
			<point x="-471" y="417" type="line"/>
			<point x="-415" y="419" type="line"/>
			<point x="-392" y="419"/>
			<point x="-375" y="420"/>
			<point x="-365" y="422" type="curve"/>
			<point x="-356" y="423"/>
			<point x="-348" y="427"/>
			<point x="-342" y="434" type="curve"/>
			<point x="-338" y="438"/>
			<point x="-336" y="442"/>
			<point x="-336" y="446" type="curve"/>
			<point x="-336" y="455"/>
			<point x="-343" y="467"/>
			<point x="-356" y="482" type="curve"/>
			<point x="-384" y="515" type="line"/>
			<point x="-316" y="520" type="line" smooth="yes"/>
			<point x="-277" y="523"/>
			<point x="-248" y="525"/>
			<point x="-231" y="528" type="curve"/>
			<point x="-196" y="532"/>
			<point x="-189" y="544"/>
			<point x="-237" y="548" type="curve"/>
			<point x="-261" y="549"/>
			<point x="-307" y="550"/>
			<point x="-375" y="550" type="curve"/>
			<point x="-430" y="550"/>
			<point x="-466" y="549"/>
			<point x="-484" y="548" type="curve"/>
			<point x="-502" y="546"/>
			<point x="-511" y="543"/>
			<point x="-511" y="539" type="curve"/>
			<point x="-511" y="532"/>
			<point x="-441" y="464"/>
			<point x="-422" y="449" type="curve"/>
			<point x="-440" y="450"/>
			<point x="-476" y="450"/>
			<point x="-530" y="450" type="curve"/>
			<point x="-558" y="450"/>
			<point x="-583" y="449"/>
			<point x="-606" y="447" type="curve"/>
			<point x="-629" y="445"/>
			<point x="-641" y="442"/>
			<point x="-641" y="439" type="curve"/>
			<point x="-641" y="426"/>
			<point x="-572" y="362"/>
			<point x="-540" y="339" type="curve"/>
			<point x="-555" y="340"/>
			<point x="-577" y="340"/>
			<point x="-605" y="340" type="curve"/>
			<point x="-709" y="340"/>
			<point x="-761" y="336"/>
			<point x="-761" y="329" type="curve"/>
			<point x="-761" y="326"/>
			<point x="-756" y="319"/>
			<point x="-745" y="306" type="curve"/>
			<point x="-735" y="293"/>
			<point x="-723" y="279"/>
			<point x="-710" y="264" type="curve"/>
			<point x="-675" y="227"/>
			<point x="-646" y="208"/>
			<point x="-624" y="208" type="curve"/>
			<point x="-611" y="208"/>
			<point x="-600" y="214"/>
		</contour>
		<contour>
			<point x="-120" y="479" type="curve"/>
			<point x="-120" y="479" type="line"/>
			<point x="-107" y="479"/>
			<point x="-97" y="480"/>
			<point x="-92" y="481" type="curve"/>
			<point x="-87" y="482"/>
			<point x="-83" y="486"/>
			<point x="-82" y="491" type="curve"/>
			<point x="-81" y="496"/>
			<point x="-79" y="499"/>
			<point x="-78" y="502" type="curve"/>
			<point x="-74" y="517"/>
			<point x="-70" y="528"/>
			<point x="-66" y="534" type="curve"/>
			<point x="-64" y="537"/>
			<point x="-65" y="539"/>
			<point x="-68" y="540" type="curve"/>
			<point x="-72" y="541"/>
			<point x="-83" y="541"/>
			<point x="-101" y="541" type="curve"/>
			<point x="-117" y="541"/>
			<point x="-127" y="541"/>
			<point x="-131" y="540" type="curve"/>
			<point x="-135" y="539"/>
			<point x="-137" y="537"/>
			<point x="-138" y="533" type="curve"/>
			<point x="-139" y="528"/>
			<point x="-140" y="524"/>
			<point x="-141" y="520" type="curve"/>
			<point x="-146" y="507"/>
			<point x="-149" y="499"/>
			<point x="-152" y="495" type="curve"/>
			<point x="-154" y="492"/>
			<point x="-155" y="490"/>
			<point x="-155" y="488" type="curve"/>
			<point x="-155" y="482"/>
			<point x="-143" y="479"/>
		</contour>
	</outline>
</glyph>
<glyph name="_part.argon" format="2">
	<advance width="328"/>
	<outline>
		<contour>
			<point x="191" y="208" type="curve"/>
			<point x="191" y="208" type="line"/>
			<point x="213" y="208"/>
			<point x="242" y="227"/>
			<point x="277" y="264" type="curve"/>
			<point x="313" y="306" type="line" smooth="yes"/>
			<point x="323" y="319"/>
			<point x="328" y="326"/>
			<point x="328" y="329" type="curve"/>
			<point x="328" y="336"/>
			<point x="269" y="340"/>
			<point x="152" y="340" type="curve"/>
			<point x="91" y="340"/>
			<point x="51" y="339"/>
			<point x="31" y="338" type="curve"/>
			<point x="10" y="336"/>
			<point x="0" y="333"/>
			<point x="0" y="329" type="curve"/>
			<point x="0" y="324"/>
			<point x="6" y="320"/>
			<point x="19" y="317" type="curve"/>
			<point x="32" y="314"/>
			<point x="56" y="311"/>
			<point x="93" y="310" type="curve"/>
			<point x="201" y="305" type="line"/>
			<point x="173" y="272" type="line" smooth="yes"/>
			<point x="160" y="256"/>
			<point x="153" y="245"/>
			<point x="153" y="238" type="curve"/>
			<point x="153" y="233"/>
			<point x="155" y="228"/>
			<point x="158" y="225" type="curve"/>
			<point x="167" y="214"/>
			<point x="178" y="208"/>
		</contour>
	</outline>
</glyph>
<glyph name="_part.diargon" format="2">
	<advance width="438"/>
	<note>
		slash
  </note>
	<outline>
		<contour>
			<point x="301" y="208" type="curve"/>
			<point x="301" y="208" type="line"/>
			<point x="323" y="208"/>
			<point x="352" y="227"/>
			<point x="387" y="264" type="curve"/>
			<point x="423" y="306" type="line" smooth="yes"/>
			<point x="433" y="319"/>
			<point x="438" y="326"/>
			<point x="438" y="329" type="curve"/>
			<point x="438" y="336"/>
			<point x="386" y="340"/>
			<point x="282" y="340" type="curve"/>
			<point x="241" y="340"/>
			<point x="212" y="340"/>
			<point x="197" y="339" type="curve"/>
			<point x="228" y="360"/>
			<point x="262" y="400"/>
			<point x="283" y="426" type="curve"/>
			<point x="293" y="439"/>
			<point x="298" y="446"/>
			<point x="298" y="449" type="curve"/>
			<point x="298" y="452"/>
			<point x="287" y="455"/>
			<point x="264" y="457" type="curve"/>
			<point x="241" y="459"/>
			<point x="215" y="460"/>
			<point x="187" y="460" type="curve"/>
			<point x="112" y="460"/>
			<point x="62" y="459"/>
			<point x="37" y="458" type="curve"/>
			<point x="11" y="456"/>
			<point x="-1" y="452"/>
			<point x="0" y="447" type="curve"/>
			<point x="3" y="438"/>
			<point x="46" y="431"/>
			<point x="128" y="427" type="curve"/>
			<point x="171" y="425" type="line"/>
			<point x="156" y="407"/>
			<point x="147" y="396"/>
			<point x="143" y="392" type="curve"/>
			<point x="120" y="369"/>
			<point x="108" y="350"/>
			<point x="108" y="336" type="curve"/>
			<point x="108" y="333"/>
			<point x="109" y="330"/>
			<point x="110" y="327" type="curve"/>
			<point x="113" y="322"/>
			<point x="121" y="318"/>
			<point x="135" y="317" type="curve"/>
			<point x="149" y="315"/>
			<point x="178" y="313"/>
			<point x="223" y="310" type="curve"/>
			<point x="311" y="305" type="line"/>
			<point x="283" y="272" type="line" smooth="yes"/>
			<point x="270" y="256"/>
			<point x="263" y="245"/>
			<point x="263" y="238" type="curve"/>
			<point x="263" y="233"/>
			<point x="265" y="228"/>
			<point x="268" y="225" type="curve"/>
			<point x="277" y="214"/>
			<point x="288" y="208"/>
		</contour>
	</outline>
</glyph>
<glyph name="_part.digorgon" format="2">
	<advance width="438"/>
	<outline>
		<contour>
			<point x="170" y="225" type="curve"/>
			<point x="170" y="225" type="line"/>
			<point x="173" y="228"/>
			<point x="175" y="233"/>
			<point x="175" y="238" type="curve"/>
			<point x="175" y="245"/>
			<point x="168" y="256"/>
			<point x="155" y="272" type="curve"/>
			<point x="127" y="305" type="line"/>
			<point x="215" y="310" type="line" smooth="yes"/>
			<point x="260" y="313"/>
			<point x="289" y="315"/>
			<point x="303" y="317" type="curve"/>
			<point x="317" y="318"/>
			<point x="325" y="322"/>
			<point x="328" y="327" type="curve"/>
			<point x="329" y="330"/>
			<point x="330" y="333"/>
			<point x="330" y="336" type="curve"/>
			<point x="330" y="350"/>
			<point x="318" y="369"/>
			<point x="295" y="392" type="curve"/>
			<point x="291" y="396"/>
			<point x="282" y="407"/>
			<point x="267" y="425" type="curve"/>
			<point x="310" y="427" type="line" smooth="yes"/>
			<point x="392" y="431"/>
			<point x="435" y="438"/>
			<point x="438" y="447" type="curve"/>
			<point x="439" y="452"/>
			<point x="427" y="456"/>
			<point x="402" y="458" type="curve"/>
			<point x="376" y="459"/>
			<point x="326" y="460"/>
			<point x="251" y="460" type="curve"/>
			<point x="223" y="460"/>
			<point x="198" y="459"/>
			<point x="175" y="457" type="curve"/>
			<point x="152" y="455"/>
			<point x="140" y="452"/>
			<point x="140" y="449" type="curve"/>
			<point x="140" y="446"/>
			<point x="145" y="439"/>
			<point x="156" y="426" type="curve"/>
			<point x="176" y="400"/>
			<point x="210" y="360"/>
			<point x="241" y="339" type="curve"/>
			<point x="226" y="340"/>
			<point x="197" y="340"/>
			<point x="156" y="340" type="curve"/>
			<point x="52" y="340"/>
			<point x="0" y="336"/>
			<point x="0" y="329" type="curve"/>
			<point x="0" y="326"/>
			<point x="5" y="319"/>
			<point x="16" y="306" type="curve"/>
			<point x="26" y="293"/>
			<point x="38" y="279"/>
			<point x="51" y="264" type="curve"/>
			<point x="86" y="227"/>
			<point x="115" y="208"/>
			<point x="137" y="208" type="curve"/>
			<point x="150" y="208"/>
			<point x="161" y="214"/>
		</contour>
	</outline>
</glyph>
<glyph name="_part.dot" format="2">
	<advance width="90"/>
	<outline>
		<contour>
			<point x="35" y="259" type="curve"/>
			<point x="35" y="259" type="line"/>
			<point x="48" y="259"/>
			<point x="58" y="260"/>
			<point x="63" y="261" type="curve"/>
			<point x="68" y="262"/>
			<point x="71" y="265"/>
			<point x="73" y="270" type="curve"/>
			<point x="75" y="275"/>
			<point x="76" y="279"/>
			<point x="77" y="282" type="curve"/>
			<point x="81" y="297"/>
			<point x="85" y="308"/>
			<point x="89" y="314" type="curve"/>
			<point x="91" y="317"/>
			<point x="90" y="319"/>
			<point x="87" y="320" type="curve"/>
			<point x="83" y="321"/>
			<point x="72" y="321"/>
			<point x="54" y="321" type="curve"/>
			<point x="38" y="321"/>
			<point x="30" y="321"/>
			<point x="26" y="320" type="curve"/>
			<point x="22" y="319"/>
			<point x="20" y="317"/>
			<point x="19" y="313" type="curve"/>
			<point x="14" y="300" type="line"/>
			<point x="9" y="287"/>
			<point x="6" y="279"/>
			<point x="3" y="275" type="curve"/>
			<point x="1" y="272"/>
			<point x="0" y="270"/>
			<point x="0" y="268" type="curve"/>
			<point x="0" y="262"/>
			<point x="12" y="259"/>
		</contour>
	</outline>
</glyph>
<glyph name="_part.gorgon" format="2">
	<advance width="348"/>
	<note>
		z
  </note>
	<outline>
		<contour>
			<point x="170" y="225" type="curve"/>
			<point x="170" y="225" type="line"/>
			<point x="173" y="228"/>
			<point x="175" y="233"/>
			<point x="175" y="238" type="curve"/>
			<point x="175" y="245"/>
			<point x="168" y="256"/>
			<point x="155" y="272" type="curve"/>
			<point x="127" y="305" type="line"/>
			<point x="235" y="310" type="line" smooth="yes"/>
			<point x="307" y="313"/>
			<point x="345" y="318"/>
			<point x="348" y="327" type="curve"/>
			<point x="349" y="332"/>
			<point x="338" y="336"/>
			<point x="314" y="338" type="curve"/>
			<point x="290" y="339"/>
			<point x="244" y="340"/>
			<point x="176" y="340" type="curve"/>
			<point x="59" y="340"/>
			<point x="0" y="336"/>
			<point x="0" y="329" type="curve"/>
			<point x="0" y="326"/>
			<point x="5" y="319"/>
			<point x="16" y="306" type="curve"/>
			<point x="26" y="293"/>
			<point x="38" y="279"/>
			<point x="51" y="264" type="curve"/>
			<point x="86" y="227"/>
			<point x="115" y="208"/>
			<point x="137" y="208" type="curve"/>
			<point x="150" y="208"/>
			<point x="161" y="214"/>
		</contour>
	</outline>
</glyph>
<glyph name="_part.hemeolion" format="2">
	<advance width="330"/>
	<outline>
		<contour>
			<point x="193" y="208" type="curve"/>
			<point x="193" y="208" type="line"/>
			<point x="215" y="208"/>
			<point x="244" y="227"/>
			<point x="279" y="264" type="curve"/>
			<point x="315" y="306" type="line" smooth="yes"/>
			<point x="325" y="319"/>
			<point x="330" y="326"/>
			<point x="330" y="329" type="curve"/>
			<point x="330" y="336"/>
			<point x="278" y="340"/>
			<point x="174" y="340" type="curve"/>
			<point x="133" y="340"/>
			<point x="104" y="340"/>
			<point x="89" y="339" type="curve"/>
			<point x="120" y="360"/>
			<point x="154" y="400"/>
			<point x="175" y="426" type="curve"/>
			<point x="185" y="439"/>
			<point x="190" y="446"/>
			<point x="190" y="449" type="curve"/>
			<point x="190" y="456"/>
			<point x="139" y="460"/>
			<point x="112" y="460" type="curve"/>
			<point x="92" y="460"/>
			<point x="88" y="456"/>
			<point x="81" y="444" type="curve"/>
			<point x="76" y="435"/>
			<point x="71" y="429"/>
			<point x="67" y="425" type="curve"/>
			<point x="35" y="392" type="line" smooth="yes"/>
			<point x="12" y="369"/>
			<point x="0" y="350"/>
			<point x="0" y="336" type="curve"/>
			<point x="0" y="333"/>
			<point x="1" y="330"/>
			<point x="2" y="327" type="curve"/>
			<point x="5" y="322"/>
			<point x="13" y="318"/>
			<point x="27" y="317" type="curve"/>
			<point x="41" y="315"/>
			<point x="70" y="313"/>
			<point x="115" y="310" type="curve"/>
			<point x="203" y="305" type="line"/>
			<point x="175" y="272" type="line" smooth="yes"/>
			<point x="162" y="256"/>
			<point x="155" y="245"/>
			<point x="155" y="238" type="curve"/>
			<point x="155" y="233"/>
			<point x="157" y="228"/>
			<point x="160" y="225" type="curve"/>
			<point x="169" y="214"/>
			<point x="180" y="208"/>
		</contour>
	</outline>
</glyph>
<glyph name="_part.trigorgon" format="2">
	<advance width="558"/>
	<outline>
		<contour>
			<point x="170" y="225" type="curve"/>
			<point x="170" y="225" type="line"/>
			<point x="173" y="228"/>
			<point x="175" y="233"/>
			<point x="175" y="238" type="curve"/>
			<point x="175" y="245"/>
			<point x="168" y="256"/>
			<point x="155" y="272" type="curve"/>
			<point x="127" y="305" type="line"/>
			<point x="226" y="312" type="line" smooth="yes"/>
			<point x="255" y="314"/>
			<point x="276" y="316"/>
			<point x="288" y="318" type="curve"/>
			<point x="311" y="321"/>
			<point x="314" y="333"/>
			<point x="306" y="347" type="curve"/>
			<point x="302" y="354"/>
			<point x="292" y="365"/>
			<point x="275" y="382" type="curve"/>
			<point x="271" y="386"/>
			<point x="262" y="397"/>
			<point x="247" y="415" type="curve"/>
			<point x="290" y="417" type="line"/>
			<point x="346" y="419" type="line" smooth="yes"/>
			<point x="369" y="419"/>
			<point x="386" y="420"/>
			<point x="396" y="422" type="curve"/>
			<point x="405" y="423"/>
			<point x="413" y="427"/>
			<point x="419" y="434" type="curve"/>
			<point x="423" y="438"/>
			<point x="425" y="442"/>
			<point x="425" y="446" type="curve"/>
			<point x="425" y="455"/>
			<point x="418" y="467"/>
			<point x="405" y="482" type="curve"/>
			<point x="377" y="515" type="line"/>
			<point x="445" y="520" type="line" smooth="yes"/>
			<point x="484" y="523"/>
			<point x="513" y="525"/>
			<point x="530" y="528" type="curve"/>
			<point x="565" y="532"/>
			<point x="572" y="544"/>
			<point x="524" y="548" type="curve"/>
			<point x="500" y="549"/>
			<point x="454" y="550"/>
			<point x="386" y="550" type="curve"/>
			<point x="331" y="550"/>
			<point x="295" y="549"/>
			<point x="277" y="548" type="curve"/>
			<point x="259" y="546"/>
			<point x="250" y="543"/>
			<point x="250" y="539" type="curve"/>
			<point x="250" y="532"/>
			<point x="320" y="464"/>
			<point x="339" y="449" type="curve"/>
			<point x="321" y="450"/>
			<point x="285" y="450"/>
			<point x="231" y="450" type="curve"/>
			<point x="203" y="450"/>
			<point x="178" y="449"/>
			<point x="155" y="447" type="curve"/>
			<point x="132" y="445"/>
			<point x="120" y="442"/>
			<point x="120" y="439" type="curve"/>
			<point x="120" y="426"/>
			<point x="189" y="362"/>
			<point x="221" y="339" type="curve"/>
			<point x="206" y="340"/>
			<point x="184" y="340"/>
			<point x="156" y="340" type="curve"/>
			<point x="52" y="340"/>
			<point x="0" y="336"/>
			<point x="0" y="329" type="curve"/>
			<point x="0" y="326"/>
			<point x="5" y="319"/>
			<point x="16" y="306" type="curve"/>
			<point x="26" y="293"/>
			<point x="38" y="279"/>
			<point x="51" y="264" type="curve"/>
			<point x="86" y="227"/>
			<point x="115" y="208"/>
			<point x="137" y="208" type="curve"/>
			<point x="150" y="208"/>
			<point x="161" y="214"/>
		</contour>
	</outline>
</glyph>
<glyph name="elaf.alt" format="2">
	<advance width="1045"/>
	<outline>
		<contour>
			<point x="268" y="-86" type="curve"/>
			<point x="268" y="-86" type="line"/>
			<point x="128" y="-65"/>
			<point x="52" y="-25"/>
			<point x="34" y="21" type="curve"/>
			<point x="29" y="32"/>
			<point x="29" y="56"/>
			<point x="35" y="74" type="curve"/>
			<point x="44" y="106"/>
			<point x="71" y="125"/>
			<point x="137" y="146" type="curve"/>
			<point x="339" y="210"/>
			<point x="449" y="204"/>
			<point x="675" y="174" type="curve"/>
			<point x="827" y="154"/>
			<point x="927" y="116"/>
			<point x="977" y="65" type="curve"/>
			<point x="1005" y="38"/>
			<point x="1015" y="15"/>
			<point x="1015" y="-28" type="curve"/>
			<point x="1015" y="-78"/>
			<point x="996" y="-81"/>
			<point x="916" y="-92" type="curve"/>
			<point x="875" y="-98"/>
			<point x="749" y="-80"/>
			<point x="732" y="-68" type="curve"/>
			<point x="720" y="-60"/>
			<point x="717" y="-55"/>
			<point x="723" y="-47" type="curve"/>
			<point x="728" y="-39"/>
			<point x="740" y="-36"/>
			<point x="771" y="-34" type="curve"/>
			<point x="804" y="-32"/>
			<point x="822" y="-21"/>
			<point x="824" y="0" type="curve"/>
			<point x="825" y="12"/>
			<point x="819" y="22"/>
			<point x="797" y="47" type="curve"/>
			<point x="736" y="114"/>
			<point x="619" y="144"/>
			<point x="456" y="144" type="curve"/>
			<point x="293" y="144"/>
			<point x="200" y="109"/>
			<point x="193" y="47" type="curve"/>
			<point x="189" y="7"/>
			<point x="228" y="-29"/>
			<point x="310" y="-43" type="curve"/>
			<point x="324" y="-45"/>
			<point x="334" y="-49"/>
			<point x="337" y="-53" type="curve"/>
			<point x="345" y="-60"/>
			<point x="337" y="-87"/>
			<point x="325" y="-92" type="curve"/>
			<point x="317" y="-96"/>
			<point x="320" y="-93"/>
		</contour>
	</outline>
</glyph>
<glyph name="hyfe" format="2">
	<advance width="388"/>
	<outline>
		<contour>
			<point x="69" y="-61" type="curve"/>
			<point x="69" y="-61" type="line"/>
			<point x="55" y="-57"/>
			<point x="43" y="-46"/>
			<point x="41" y="-37" type="curve"/>
			<point x="38" y="-24"/>
			<point x="45" y="-20"/>
			<point x="72" y="-20" type="curve"/>
			<point x="122" y="-20"/>
			<point x="130" y="-5"/>
			<point x="123" y="81" type="curve"/>
			<point x="115" y="177"/>
			<point x="120" y="182"/>
			<point x="225" y="178" type="curve"/>
			<point x="291" y="175"/>
			<point x="304" y="172"/>
			<point x="307" y="157" type="curve"/>
			<point x="310" y="144"/>
			<point x="304" y="140"/>
			<point x="279" y="140" type="curve"/>
			<point x="235" y="140"/>
			<point x="249" y="124"/>
			<point x="254" y="56" type="curve"/>
			<point x="260" y="-21"/>
			<point x="259" y="-30"/>
			<point x="240" y="-49" type="curve"/>
			<point x="223" y="-66"/>
			<point x="207" y="-70"/>
			<point x="157" y="-69" type="curve"/>
			<point x="122" y="-68"/>
			<point x="83" y="-65"/>
		</contour>
	</outline>
</glyph>
<glyph name="ken2" format="2">
	<advance width="494"/>
	<outline>
		<contour>
			<point x="357" y="-61" type="curve"/>
			<point x="357" y="-61" type="line"/>
			<point x="325" y="-51"/>
			<point x="308" y="-27"/>
			<point x="292" y="26" type="curve"/>
			<point x="269" y="101"/>
			<point x="263" y="113"/>
			<point x="246" y="119" type="curve"/>
			<point x="235" y="123"/>
			<point x="229" y="130"/>
			<point x="231" y="134" type="curve"/>
			<point x="237" y="147"/>
			<point x="275" y="152"/>
			<point x="321" y="146" type="curve"/>
			<point x="373" y="138"/>
			<point x="388" y="124"/>
			<point x="409" y="53" type="curve"/>
			<point x="432" y="-21"/>
			<point x="438" y="-32"/>
			<point x="452" y="-37" type="curve"/>
			<point x="467" y="-42"/>
			<point x="469" y="-57"/>
			<point x="453" y="-64" type="curve"/>
			<point x="439" y="-70"/>
			<point x="383" y="-69"/>
		</contour>
		<contour>
			<point x="157" y="-61" type="curve"/>
			<point x="157" y="-61" type="line"/>
			<point x="125" y="-51"/>
			<point x="108" y="-27"/>
			<point x="92" y="26" type="curve"/>
			<point x="69" y="101"/>
			<point x="63" y="113"/>
			<point x="46" y="119" type="curve"/>
			<point x="35" y="123"/>
			<point x="29" y="130"/>
			<point x="31" y="134" type="curve"/>
			<point x="37" y="147"/>
			<point x="75" y="152"/>
			<point x="121" y="146" type="curve"/>
			<point x="173" y="139"/>
			<point x="188" y="124"/>
			<point x="209" y="53" type="curve"/>
			<point x="231" y="-21"/>
			<point x="238" y="-32"/>
			<point x="252" y="-37" type="curve"/>
			<point x="267" y="-42"/>
			<point x="269" y="-57"/>
			<point x="253" y="-64" type="curve"/>
			<point x="239" y="-70"/>
			<point x="183" y="-69"/>
		</contour>
	</outline>
</glyph>
<glyph name="oligon" format="2">
	<advance width="1126"/>
	<outline>
		<contour>
			<point x="1075" y="-49" type="curve"/>
			<point x="1075" y="-49" type="line"/>
			<point x="1068" y="-44"/>
			<point x="1035" y="-33"/>
			<point x="1014" y="-28" type="curve"/>
			<point x="969" y="-17"/>
			<point x="925" y="-11"/>
			<point x="856" y="-7" type="curve"/>
			<point x="811" y="-4"/>
			<point x="585" y="-6"/>
			<point x="462" y="-9" type="curve"/>
			<point x="374" y="-12"/>
			<point x="298" y="-6"/>
			<point x="222" y="7" type="curve"/>
			<point x="108" y="29"/>
			<point x="38" y="68"/>
			<point x="30" y="118" type="curve"/>
			<point x="27" y="141"/>
			<point x="41" y="154"/>
			<point x="56" y="145" type="curve"/>
			<point x="84" y="129"/>
			<point x="153" y="117"/>
			<point x="225" y="108" type="curve"/>
			<point x="275" y="102"/>
			<point x="434" y="103"/>
			<point x="609" y="107" type="curve"/>
			<point x="773" y="113"/>
			<point x="817" y="112"/>
			<point x="850" y="107" type="curve"/>
			<point x="938" y="94"/>
			<point x="1013" y="58"/>
			<point x="1080" y="3" type="curve"/>
			<point x="1105" y="-18"/>
			<point x="1098" y="-64"/>
		</contour>
	</outline>
</glyph>
